<?xml version="1.0" standalone="no"?>
<!DOCTYPE svg PUBLIC "-//W3C//DTD SVG 20010904//EN"
 "http://www.w3.org/TR/2001/REC-SVG-20010904/DTD/svg10.dtd">
<svg version="1.0" xmlns="http://www.w3.org/2000/svg"
 width="500.000000pt" height="500.000000pt" viewBox="0 0 500.000000 500.000000"
 preserveAspectRatio="xMidYMid meet">

<g transform="translate(0.000000,500.000000) scale(0.100000,-0.100000)"
fill="#000000" stroke="none">
<path d="M2499 4488 c-6 -137 -27 -449 -31 -453 -2 -3 -125 -8 -273 -12 l-269
-8 -183 -615 c-102 -338 -187 -635 -190 -660 -6 -52 17 -93 77 -142 106 -85
349 -103 500 -37 80 35 140 108 140 168 0 16 -67 300 -150 631 -82 330 -150
603 -150 605 0 3 113 5 251 5 l250 0 -6 -77 c-3 -43 -26 -433 -50 -868 l-44
-790 21 -22 c11 -11 39 -31 62 -44 53 -28 93 -21 158 26 l46 34 -4 58 c-4 55
-94 1653 -94 1673 0 6 100 10 265 10 154 0 265 -4 265 -9 0 -5 -72 -250 -159
-544 -88 -295 -170 -571 -182 -615 l-21 -79 20 -46 c40 -90 155 -146 317 -154
216 -12 393 85 387 210 -1 32 -237 1005 -303 1249 l-10 38 -292 2 -292 3 -12
200 c-6 110 -12 217 -12 238 -1 26 -5 37 -16 37 -8 0 -15 -6 -16 -12z m-576
-1130 c-2 -299 -5 -558 -8 -575 l-6 -33 -164 0 c-91 0 -165 3 -165 7 0 3 73
247 161 542 89 295 166 551 171 569 5 17 10 32 11 32 1 0 1 -244 0 -542z
m1180 -36 l-6 -572 -170 0 c-131 0 -168 3 -164 13 2 6 80 265 172 574 93 310
170 561 172 560 2 -2 0 -261 -4 -575z m185 -15 l140 -557 -149 0 -149 0 0 343
c0 318 10 781 16 774 2 -1 66 -253 142 -560z m-1173 -38 c69 -273 125 -501
125 -508 0 -8 -45 -11 -147 -11 l-148 0 3 527 c1 291 5 539 8 553 6 22 8 20
20 -20 7 -25 70 -268 139 -541z"/>
<path d="M1192 4171 c-58 -57 -82 -118 -82 -200 0 -84 10 -91 55 -39 55 63 87
139 93 220 3 45 1 68 -6 68 -6 0 -33 -22 -60 -49z"/>
<path d="M3742 4147 c5 -84 45 -171 103 -227 l34 -33 7 38 c9 51 -1 126 -24
172 -21 39 -99 123 -115 123 -6 0 -8 -31 -5 -73z"/>
<path d="M946 3918 c-13 -51 -6 -159 13 -196 49 -95 179 -106 256 -21 37 41
80 127 70 138 -11 10 -84 2 -114 -13 -34 -18 -66 -60 -86 -113 l-14 -38 -1 65
c-1 77 -24 135 -69 173 -39 33 -47 33 -55 5z"/>
<path d="M3987 3905 c-42 -41 -57 -85 -58 -175 -1 -59 -2 -62 -10 -31 -15 49
-58 110 -91 127 -30 15 -102 23 -113 12 -8 -8 20 -75 50 -118 35 -50 78 -73
141 -74 87 -1 144 55 152 148 6 71 -5 146 -22 146 -7 0 -29 -16 -49 -35z"/>
<path d="M3922 3525 c0 -16 2 -22 5 -12 2 9 2 23 0 30 -3 6 -5 -1 -5 -18z"/>
<path d="M864 3470 c12 -106 40 -160 99 -192 18 -9 45 -17 60 -18 28 0 29 1
22 43 -18 108 -61 183 -120 211 -61 29 -69 24 -61 -44z"/>
<path d="M4058 3505 c-46 -31 -73 -75 -93 -150 -21 -84 -20 -95 11 -95 40 0
99 38 122 79 18 31 42 134 42 179 0 20 -43 14 -82 -13z"/>
<path d="M1193 3500 c-49 -11 -81 -36 -103 -79 -24 -48 -35 -137 -21 -171 6
-16 10 -19 10 -8 1 9 20 26 46 38 52 25 76 55 99 123 17 50 21 108 9 106 -5
-1 -23 -4 -40 -9z"/>
<path d="M3758 3504 c-16 -15 29 -153 60 -187 24 -27 111 -67 118 -55 10 16
-7 121 -27 159 -10 21 -33 46 -51 57 -33 20 -92 35 -100 26z"/>
<path d="M3912 3185 c0 -16 2 -22 5 -12 2 9 2 23 0 30 -3 6 -5 -1 -5 -18z"/>
<path d="M1082 3175 c0 -16 2 -22 5 -12 2 9 2 23 0 30 -3 6 -5 -1 -5 -18z"/>
<path d="M1211 3157 c-40 -20 -57 -42 -92 -118 -8 -18 10 -149 20 -149 3 0 20
9 37 19 48 29 83 82 94 142 11 54 5 129 -9 129 -4 0 -27 -10 -50 -23z"/>
<path d="M3726 3165 c-10 -28 -7 -89 9 -142 12 -39 27 -62 62 -93 25 -22 51
-39 57 -37 13 4 37 130 26 137 -4 3 -11 19 -14 37 -7 30 -74 103 -95 103 -5 0
-16 3 -24 6 -8 3 -17 -2 -21 -11z"/>
<path d="M3902 3120 c0 -14 2 -19 5 -12 2 6 2 18 0 25 -3 6 -5 1 -5 -13z"/>
<path d="M1092 3110 c0 -14 2 -19 5 -12 2 6 2 18 0 25 -3 6 -5 1 -5 -13z"/>
<path d="M877 3068 c22 -76 47 -121 87 -155 37 -33 97 -49 133 -36 l22 8 -24
59 c-13 33 -37 75 -53 95 -34 43 -104 81 -149 81 l-32 0 16 -52z"/>
<path d="M4034 3105 c-39 -17 -87 -72 -118 -133 -40 -81 -41 -89 -7 -97 94
-20 191 73 217 210 6 35 6 35 -27 34 -19 0 -48 -7 -65 -14z"/>
<path d="M3891 3064 c0 -11 3 -14 6 -6 3 7 2 16 -1 19 -3 4 -6 -2 -5 -13z"/>
<path d="M1101 3054 c0 -11 3 -14 6 -6 3 7 2 16 -1 19 -3 4 -6 -2 -5 -13z"/>
<path d="M1316 2851 c-48 -32 -71 -78 -71 -143 0 -51 -1 -55 -12 -35 -7 12
-12 18 -13 14 0 -18 125 -253 182 -339 l59 -90 -59 47 c-93 72 -184 90 -262
50 l-24 -13 64 -64 c36 -35 83 -72 104 -82 50 -23 126 -17 167 13 l30 22 77
-72 c125 -117 279 -234 417 -317 22 -13 31 -21 20 -17 -48 17 -144 28 -188 21
-50 -8 -129 -59 -135 -88 -2 -11 16 -23 60 -42 159 -66 252 -52 317 47 21 31
27 35 44 25 11 -6 88 -34 171 -63 l151 -53 -45 -12 c-191 -50 -356 -108 -353
-124 0 -5 13 -16 27 -25 23 -14 28 -14 63 6 45 25 356 123 391 123 35 0 350
-98 393 -122 34 -19 38 -19 68 -4 17 9 29 21 26 26 -10 15 -192 77 -355 120
l-45 12 151 53 c83 29 160 58 172 64 17 9 22 8 27 -8 10 -32 81 -89 126 -101
49 -13 127 1 218 41 57 24 62 36 29 67 -69 64 -171 77 -298 37 -14 -4 31 30
100 75 139 92 184 127 315 246 l90 81 44 -24 c85 -45 164 -23 258 74 29 30 53
58 53 63 0 18 -46 34 -105 34 -65 1 -120 -24 -191 -86 -31 -27 -28 -20 32 73
63 99 195 355 193 375 0 5 -12 -13 -26 -41 l-25 -50 6 37 c2 20 0 54 -6 75
-11 41 -76 113 -101 113 -36 0 -51 -164 -21 -223 9 -18 30 -46 47 -64 l30 -32
-38 -63 c-38 -62 -134 -198 -139 -198 -2 0 7 21 20 46 32 63 39 108 25 155
-12 39 -65 109 -83 109 -14 0 -56 -103 -63 -157 -7 -53 10 -114 45 -163 l20
-28 -80 -76 c-45 -41 -95 -85 -113 -97 l-32 -23 21 25 c78 88 86 191 20 273
-15 18 -17 19 -35 2 -32 -29 -82 -133 -87 -183 -5 -43 1 -74 29 -143 5 -11
-12 -28 -56 -57 -68 -46 -237 -138 -237 -129 0 3 13 12 30 21 84 43 140 123
140 199 0 47 -26 116 -44 116 -6 0 -36 -27 -68 -61 -74 -77 -97 -144 -80 -228
7 -30 11 -56 9 -57 -6 -6 -262 -95 -330 -114 l-78 -23 -107 32 c-59 18 -151
49 -205 69 l-97 36 7 35 c14 68 6 127 -23 181 -26 49 -105 130 -126 130 -15 0
-40 -71 -40 -116 0 -72 40 -132 132 -197 14 -9 -4 -3 -40 14 -89 43 -221 131
-216 144 29 66 38 121 27 171 -12 53 -82 174 -100 174 -6 0 -22 -21 -37 -47
-44 -75 -33 -162 30 -232 41 -46 -4 -15 -98 69 -93 81 -108 102 -86 115 26 16
53 92 53 145 -1 58 -39 170 -61 178 -15 5 -61 -44 -78 -85 -22 -51 -17 -104
14 -166 16 -31 23 -52 16 -46 -17 14 -126 175 -148 218 -18 33 -18 33 13 65
58 60 75 142 50 242 -13 49 -21 52 -63 25z"/>
<path d="M3816 2805 c-9 -26 -7 -32 5 -12 6 10 9 21 6 23 -2 3 -7 -2 -11 -11z"/>
<path d="M1180 2785 c0 -5 5 -17 10 -25 5 -8 10 -10 10 -5 0 6 -5 17 -10 25
-5 8 -10 11 -10 5z"/>
<path d="M1200 2735 c0 -5 5 -17 10 -25 5 -8 10 -10 10 -5 0 6 -5 17 -10 25
-5 8 -10 11 -10 5z"/>
<path d="M962 2723 c-9 -3 -4 -21 19 -62 51 -97 123 -151 200 -151 31 0 79 19
79 31 0 12 -69 102 -98 127 -60 52 -148 76 -200 55z"/>
<path d="M3900 2712 c-72 -35 -175 -161 -152 -184 6 -6 30 -13 55 -15 85 -10
169 51 226 164 18 36 18 42 5 47 -30 11 -99 5 -134 -12z"/>
<path d="M1424 2061 c-23 -10 -45 -25 -49 -32 -10 -16 45 -66 110 -98 91 -45
169 -41 231 13 38 34 39 35 19 50 -11 8 -49 29 -84 47 -82 41 -167 49 -227 20z"/>
<path d="M3379 2056 c-45 -18 -93 -46 -128 -73 -9 -7 45 -56 76 -69 73 -31
186 0 272 73 40 35 36 47 -23 74 -56 25 -129 24 -197 -5z"/>
<path d="M646 1379 c-30 -24 -34 -59 -8 -82 26 -24 33 -21 22 9 -13 34 -2 74
24 84 15 6 16 9 5 9 -9 1 -28 -8 -43 -20z"/>
<path d="M853 1393 c-23 -9 -15 -53 12 -65 24 -11 30 -21 26 -43 -1 -5 5 -3
14 6 20 20 7 54 -25 64 -22 7 -27 31 -7 38 6 3 8 5 2 5 -5 0 -16 -2 -22 -5z"/>
<path d="M1212 1384 c-26 -18 -30 -65 -6 -88 22 -23 37 -20 24 3 -25 47 2 109
35 81 18 -15 20 -71 3 -88 -8 -8 -9 -12 -1 -12 21 0 43 31 43 60 0 30 -30 60
-60 60 -9 0 -26 -7 -38 -16z"/>
<path d="M1410 1387 c-43 -22 -37 -107 8 -107 12 0 13 3 4 12 -21 21 -15 75
10 92 27 19 13 21 -22 3z"/>
<path d="M3040 1393 c-40 -14 -53 -69 -22 -96 27 -25 32 -21 20 14 -12 35 2
79 26 79 26 0 37 -75 14 -98 -9 -9 -9 -12 3 -12 43 0 55 78 17 104 -23 17 -33
18 -58 9z"/>
<path d="M3396 1384 c-22 -22 -20 -30 15 -54 19 -14 28 -28 25 -37 -4 -9 -1
-13 6 -11 7 3 14 15 16 29 2 18 -5 28 -30 42 -31 18 -32 19 -13 33 10 8 14 14
8 14 -7 0 -19 -7 -27 -16z"/>
<path d="M3985 1375 c-29 -28 -31 -42 -9 -73 23 -33 29 -27 29 30 0 46 3 53
20 53 17 0 20 -7 20 -53 0 -28 3 -52 7 -52 10 0 38 42 38 58 0 18 -46 62 -65
62 -9 0 -27 -11 -40 -25z"/>
<path d="M4123 1393 c-23 -9 -15 -53 12 -65 24 -11 30 -21 26 -43 -1 -5 5 -3
14 6 20 20 7 54 -25 64 -22 7 -27 31 -7 38 6 3 8 5 2 5 -5 0 -16 -2 -22 -5z"/>
<path d="M380 1335 c0 -42 3 -55 15 -55 10 0 15 10 15 28 l1 27 20 -27 c11
-16 27 -28 35 -28 15 0 19 12 7 24 -5 4 -8 24 -8 44 0 26 -5 37 -16 40 -13 2
-15 -3 -12 -23 4 -18 1 -25 -11 -25 -10 0 -16 9 -16 25 0 16 -6 25 -15 25 -12
0 -15 -13 -15 -55z"/>
<path d="M510 1335 c0 -47 3 -55 19 -55 14 0 17 6 13 25 -4 25 12 35 21 13 3
-7 5 1 5 17 0 17 -2 24 -5 18 -8 -22 -23 -14 -23 12 0 16 -6 25 -15 25 -12 0
-15 -13 -15 -55z"/>
<path d="M575 1380 c3 -5 8 -10 11 -10 2 0 4 5 4 10 0 6 -5 10 -11 10 -5 0 -7
-4 -4 -10z"/>
<path d="M715 1380 c3 -5 8 -10 11 -10 2 0 4 5 4 10 0 6 -5 10 -11 10 -5 0 -7
-4 -4 -10z"/>
<path d="M770 1335 c0 -46 3 -55 18 -55 14 0 17 9 17 55 0 46 -3 55 -17 55
-15 0 -18 -9 -18 -55z"/>
<path d="M896 1375 c4 -8 8 -15 10 -15 2 0 4 7 4 15 0 8 -4 15 -10 15 -5 0 -7
-7 -4 -15z"/>
<path d="M930 1379 c0 -5 5 -7 10 -4 6 3 10 8 10 11 0 2 -4 4 -10 4 -5 0 -10
-5 -10 -11z"/>
<path d="M970 1335 c0 -42 3 -55 15 -55 12 0 15 13 15 55 0 42 -3 55 -15 55
-12 0 -15 -13 -15 -55z"/>
<path d="M1025 1380 c3 -5 8 -10 11 -10 2 0 4 5 4 10 0 6 -5 10 -11 10 -5 0
-7 -4 -4 -10z"/>
<path d="M1070 1335 c0 -42 3 -55 15 -55 10 0 15 10 15 26 l0 27 21 -27 c11
-14 27 -26 35 -26 19 0 18 9 -3 32 -14 15 -15 21 -4 27 17 11 10 45 -10 49
-13 2 -15 -3 -12 -23 4 -18 1 -25 -11 -25 -10 0 -16 9 -16 25 0 16 -6 25 -15
25 -12 0 -15 -13 -15 -55z"/>
<path d="M1460 1386 c0 -2 7 -9 15 -16 12 -10 15 -10 15 4 0 9 -7 16 -15 16
-8 0 -15 -2 -15 -4z"/>
<path d="M1520 1335 c0 -42 3 -55 15 -55 12 0 15 13 15 55 0 42 -3 55 -15 55
-12 0 -15 -13 -15 -55z"/>
<path d="M1596 1368 c3 -13 14 -39 24 -57 l17 -35 17 32 c19 37 21 53 3 28
-11 -15 -14 -14 -25 18 -15 40 -48 52 -36 14z"/>
<path d="M1670 1375 c0 -8 2 -15 4 -15 2 0 6 7 10 15 3 8 1 15 -4 15 -6 0 -10
-7 -10 -15z"/>
<path d="M1720 1335 c0 -46 3 -55 18 -55 14 0 17 9 17 55 0 46 -3 55 -17 55
-15 0 -18 -9 -18 -55z"/>
<path d="M1795 1335 c0 -46 3 -55 18 -55 14 0 17 9 17 55 0 46 -3 55 -17 55
-15 0 -18 -9 -18 -55z"/>
<path d="M1960 1335 c0 -47 3 -55 19 -55 15 0 17 5 13 28 -5 24 -4 26 11 13
15 -12 17 -10 17 14 0 23 -2 26 -15 15 -13 -11 -15 -8 -15 14 0 16 -5 26 -15
26 -12 0 -15 -13 -15 -55z"/>
<path d="M2025 1380 c3 -5 8 -10 11 -10 2 0 4 5 4 10 0 6 -5 10 -11 10 -5 0
-7 -4 -4 -10z"/>
<path d="M2110 1379 c0 -5 5 -7 10 -4 6 3 10 8 10 11 0 2 -4 4 -10 4 -5 0 -10
-5 -10 -11z"/>
<path d="M2148 1335 c-3 -47 0 -55 15 -55 14 0 17 9 17 55 0 41 -4 55 -14 55
-10 0 -15 -16 -18 -55z"/>
<path d="M2195 1380 c3 -5 8 -10 11 -10 2 0 4 5 4 10 0 6 -5 10 -11 10 -5 0
-7 -4 -4 -10z"/>
<path d="M2247 1335 c-15 -30 -22 -55 -17 -55 6 0 10 7 10 15 0 9 9 15 25 15
16 0 25 -6 25 -15 0 -8 9 -15 20 -15 17 0 18 4 10 25 -11 30 -39 85 -43 85 -2
0 -15 -25 -30 -55z m27 0 c3 -9 0 -15 -9 -15 -9 0 -12 6 -9 15 4 8 7 15 9 15
2 0 5 -7 9 -15z"/>
<path d="M2360 1335 c0 -46 3 -55 18 -55 13 0 17 8 15 32 -1 18 -2 43 -2 56
-1 12 -7 22 -16 22 -12 0 -15 -13 -15 -55z"/>
<path d="M2415 1335 c0 -56 11 -69 35 -40 7 8 8 19 3 27 -4 7 -8 24 -8 38 0
14 -7 26 -15 28 -12 2 -15 -9 -15 -53z"/>
<path d="M2580 1335 c0 -46 3 -55 18 -55 14 0 17 8 14 55 -3 39 -8 55 -18 55
-10 0 -14 -14 -14 -55z"/>
<path d="M2638 1378 c7 -7 12 -26 12 -43 0 -17 -5 -36 -12 -43 -15 -15 -3 -16
23 -2 36 20 20 100 -20 100 -12 0 -12 -3 -3 -12z"/>
<path d="M2710 1335 c0 -47 3 -55 19 -55 14 0 17 6 13 25 -4 25 12 35 21 13 3
-7 5 1 5 17 0 17 -2 24 -5 18 -8 -22 -23 -14 -23 12 0 16 -6 25 -15 25 -12 0
-15 -13 -15 -55z"/>
<path d="M2786 1375 c4 -8 8 -15 10 -15 2 0 4 7 4 15 0 8 -4 15 -10 15 -5 0
-7 -7 -4 -15z"/>
<path d="M2880 1335 c0 -30 3 -55 8 -55 4 0 6 19 4 43 l-3 42 40 -45 40 -45 0
60 c-1 43 -3 52 -8 30 l-6 -29 -21 27 c-36 45 -54 36 -54 -28z"/>
<path d="M3140 1379 c0 -5 5 -7 10 -4 6 3 10 8 10 11 0 2 -4 4 -10 4 -5 0 -10
-5 -10 -11z"/>
<path d="M3178 1335 c-3 -47 0 -55 15 -55 14 0 17 9 17 55 0 41 -4 55 -14 55
-10 0 -15 -16 -18 -55z"/>
<path d="M3225 1380 c3 -5 8 -10 11 -10 2 0 4 5 4 10 0 6 -5 10 -11 10 -5 0
-7 -4 -4 -10z"/>
<path d="M3277 1335 c-15 -30 -22 -55 -17 -55 6 0 10 7 10 15 0 9 9 15 25 15
16 0 25 -6 25 -15 0 -8 9 -15 20 -15 17 0 18 4 10 25 -11 30 -39 85 -43 85 -2
0 -15 -25 -30 -55z m27 0 c3 -9 0 -15 -9 -15 -9 0 -12 6 -9 15 4 8 7 15 9 15
2 0 5 -7 9 -15z"/>
<path d="M3440 1381 c0 -6 5 -13 10 -16 6 -3 10 1 10 9 0 9 -4 16 -10 16 -5 0
-10 -4 -10 -9z"/>
<path d="M3540 1335 c0 -46 3 -55 18 -55 14 0 17 8 14 55 -3 39 -8 55 -18 55
-10 0 -14 -14 -14 -55z"/>
<path d="M3598 1378 c7 -7 12 -26 12 -43 0 -17 -5 -36 -12 -43 -15 -15 -3 -16
23 -2 36 20 20 100 -20 100 -12 0 -12 -3 -3 -12z"/>
<path d="M3675 1335 c0 -46 3 -55 18 -55 12 0 17 8 17 26 0 14 4 23 10 19 6
-3 10 1 10 10 0 9 -4 13 -10 10 -6 -4 -10 5 -10 19 0 18 -5 26 -17 26 -15 0
-18 -9 -18 -55z"/>
<path d="M3746 1375 c4 -8 8 -15 10 -15 2 0 4 7 4 15 0 8 -4 15 -10 15 -5 0
-7 -7 -4 -15z"/>
<path d="M3845 1335 c0 -46 3 -55 18 -55 11 0 17 8 17 23 l1 22 18 -22 c11
-13 27 -23 36 -23 16 0 16 2 0 26 -13 20 -14 28 -5 40 15 16 6 44 -13 44 -7 0
-13 -10 -13 -21 1 -12 -5 -24 -11 -26 -8 -3 -13 5 -13 21 0 18 -5 26 -17 26
-15 0 -18 -9 -18 -55z"/>
<path d="M4166 1375 c4 -8 8 -15 10 -15 2 0 4 7 4 15 0 8 -4 15 -10 15 -5 0
-7 -7 -4 -15z"/>
<path d="M4220 1335 c0 -47 3 -55 19 -55 15 0 17 5 13 28 -5 24 -4 26 11 13
15 -12 17 -10 17 14 0 23 -2 26 -15 15 -13 -11 -15 -8 -15 14 0 16 -5 26 -15
26 -12 0 -15 -13 -15 -55z"/>
<path d="M4285 1380 c3 -5 8 -10 11 -10 2 0 4 5 4 10 0 6 -5 10 -11 10 -5 0
-7 -4 -4 -10z"/>
<path d="M4340 1335 c0 -42 3 -55 15 -55 12 0 15 13 15 55 0 42 -3 55 -15 55
-12 0 -15 -13 -15 -55z"/>
<path d="M4410 1335 c0 -42 3 -55 15 -55 10 0 15 10 15 28 l1 27 20 -27 c11
-16 27 -28 35 -28 15 0 19 12 7 24 -5 4 -8 24 -8 44 0 26 -5 37 -16 40 -13 2
-15 -3 -12 -23 4 -18 1 -25 -11 -25 -10 0 -16 9 -16 25 0 16 -6 25 -15 25 -12
0 -15 -13 -15 -55z"/>
<path d="M4557 1335 c-15 -30 -22 -55 -17 -55 6 0 10 7 10 15 0 9 9 15 25 15
16 0 25 -6 25 -15 0 -8 9 -15 20 -15 17 0 18 4 10 25 -11 30 -39 85 -43 85 -2
0 -15 -25 -30 -55z m27 0 c3 -9 0 -15 -9 -15 -9 0 -12 6 -9 15 4 8 7 15 9 15
2 0 5 -7 9 -15z"/>
<path d="M700 1305 c0 -15 6 -25 14 -25 7 0 16 11 18 25 4 19 1 25 -13 25 -14
0 -19 -7 -19 -25z"/>
<path d="M1872 1300 c-8 -13 -8 -20 -2 -20 6 0 13 7 17 15 9 24 -1 27 -15 5z"/>
<path d="M3380 1302 c0 -14 6 -22 16 -22 14 0 15 3 3 18 -7 9 -15 19 -16 21
-2 2 -3 -5 -3 -17z"/>
<path d="M582 1295 c-11 -12 -10 -15 3 -15 8 0 15 7 15 15 0 18 -2 18 -18 0z"/>
<path d="M840 1295 c0 -8 4 -15 10 -15 5 0 7 7 4 15 -4 8 -8 15 -10 15 -2 0
-4 -7 -4 -15z"/>
<path d="M2030 1295 c-8 -9 -8 -15 -2 -15 12 0 26 19 19 26 -2 2 -10 -2 -17
-11z"/>
<path d="M2782 1295 c-11 -12 -10 -15 3 -15 8 0 15 7 15 15 0 18 -2 18 -18 0z"/>
<path d="M4110 1295 c0 -8 4 -15 10 -15 5 0 7 7 4 15 -4 8 -8 15 -10 15 -2 0
-4 -7 -4 -15z"/>
<path d="M4290 1295 c-8 -9 -8 -15 -2 -15 12 0 26 19 19 26 -2 2 -10 -2 -17
-11z"/>
<path d="M2470 1290 c0 -5 7 -10 15 -10 8 0 15 5 15 10 0 6 -7 10 -15 10 -8 0
-15 -4 -15 -10z"/>
<path d="M3740 1290 c-13 -8 -12 -10 3 -10 9 0 17 5 17 10 0 12 -1 12 -20 0z"/>
</g>
</svg>
