<?xml version="1.0" standalone="no"?>
<!DOCTYPE svg PUBLIC "-//W3C//DTD SVG 20010904//EN"
 "http://www.w3.org/TR/2001/REC-SVG-20010904/DTD/svg10.dtd">
<svg version="1.0" xmlns="http://www.w3.org/2000/svg"
 width="500.000000pt" height="500.000000pt" viewBox="0 0 500.000000 500.000000"
 preserveAspectRatio="xMidYMid meet">

<g transform="translate(0.000000,500.000000) scale(0.100000,-0.100000)"
fill="#000000" stroke="none">
<path d="M2499 4488 c-6 -137 -27 -449 -31 -453 -2 -3 -125 -8 -273 -12 l-269
-8 -183 -615 c-102 -338 -187 -635 -190 -660 -6 -52 17 -93 77 -142 106 -85
349 -103 500 -37 80 35 140 108 140 168 0 16 -67 300 -150 631 -82 330 -150
603 -150 605 0 3 113 5 251 5 l250 0 -6 -77 c-3 -43 -26 -433 -50 -868 l-44
-790 21 -22 c11 -11 39 -31 62 -44 53 -28 93 -21 158 26 l46 34 -4 58 c-4 55
-94 1653 -94 1673 0 6 100 10 265 10 154 0 265 -4 265 -9 0 -5 -72 -250 -159
-544 -88 -295 -170 -571 -182 -615 l-21 -79 20 -46 c40 -90 155 -146 317 -154
216 -12 393 85 387 210 -1 32 -237 1005 -303 1249 l-10 38 -292 2 -292 3 -12
200 c-6 110 -12 217 -12 238 -1 26 -5 37 -16 37 -8 0 -15 -6 -16 -12z m-576
-1130 c-2 -299 -5 -558 -8 -575 l-6 -33 -164 0 c-91 0 -165 3 -165 7 0 3 73
247 161 542 89 295 166 551 171 569 5 17 10 32 11 32 1 0 1 -244 0 -542z
m1180 -36 l-6 -572 -170 0 c-131 0 -168 3 -164 13 2 6 80 265 172 574 93 310
170 561 172 560 2 -2 0 -261 -4 -575z m185 -15 l140 -557 -149 0 -149 0 0 343
c0 318 10 781 16 774 2 -1 66 -253 142 -560z m-1173 -38 c69 -273 125 -501
125 -508 0 -8 -45 -11 -147 -11 l-148 0 3 527 c1 291 5 539 8 553 6 22 8 20
20 -20 7 -25 70 -268 139 -541z"/>
<path d="M1192 4171 c-58 -57 -82 -118 -82 -200 0 -84 10 -91 55 -39 55 63 87
139 93 220 3 45 1 68 -6 68 -6 0 -33 -22 -60 -49z"/>
<path d="M3742 4147 c5 -84 45 -171 103 -227 l34 -33 7 38 c9 51 -1 126 -24
172 -21 39 -99 123 -115 123 -6 0 -8 -31 -5 -73z"/>
<path d="M946 3918 c-13 -51 -6 -159 13 -196 49 -95 179 -106 256 -21 37 41
80 127 70 138 -11 10 -84 2 -114 -13 -34 -18 -66 -60 -86 -113 l-14 -38 -1 65
c-1 77 -24 135 -69 173 -39 33 -47 33 -55 5z"/>
<path d="M3987 3905 c-42 -41 -57 -85 -58 -175 -1 -59 -2 -62 -10 -31 -15 49
-58 110 -91 127 -30 15 -102 23 -113 12 -8 -8 20 -75 50 -118 35 -50 78 -73
141 -74 87 -1 144 55 152 148 6 71 -5 146 -22 146 -7 0 -29 -16 -49 -35z"/>
<path d="M3922 3525 c0 -16 2 -22 5 -12 2 9 2 23 0 30 -3 6 -5 -1 -5 -18z"/>
<path d="M864 3470 c12 -106 40 -160 99 -192 18 -9 45 -17 60 -18 28 0 29 1
22 43 -18 108 -61 183 -120 211 -61 29 -69 24 -61 -44z"/>
<path d="M4058 3505 c-46 -31 -73 -75 -93 -150 -21 -84 -20 -95 11 -95 40 0
99 38 122 79 18 31 42 134 42 179 0 20 -43 14 -82 -13z"/>
<path d="M1193 3500 c-49 -11 -81 -36 -103 -79 -24 -48 -35 -137 -21 -171 6
-16 10 -19 10 -8 1 9 20 26 46 38 52 25 76 55 99 123 17 50 21 108 9 106 -5
-1 -23 -4 -40 -9z"/>
<path d="M3758 3504 c-16 -15 29 -153 60 -187 24 -27 111 -67 118 -55 10 16
-7 121 -27 159 -10 21 -33 46 -51 57 -33 20 -92 35 -100 26z"/>
<path d="M3912 3185 c0 -16 2 -22 5 -12 2 9 2 23 0 30 -3 6 -5 -1 -5 -18z"/>
<path d="M1082 3175 c0 -16 2 -22 5 -12 2 9 2 23 0 30 -3 6 -5 -1 -5 -18z"/>
<path d="M1211 3157 c-40 -20 -57 -42 -92 -118 -8 -18 10 -149 20 -149 3 0 20
9 37 19 48 29 83 82 94 142 11 54 5 129 -9 129 -4 0 -27 -10 -50 -23z"/>
<path d="M3726 3165 c-10 -28 -7 -89 9 -142 12 -39 27 -62 62 -93 25 -22 51
-39 57 -37 13 4 37 130 26 137 -4 3 -11 19 -14 37 -7 30 -74 103 -95 103 -5 0
-16 3 -24 6 -8 3 -17 -2 -21 -11z"/>
<path d="M3902 3120 c0 -14 2 -19 5 -12 2 6 2 18 0 25 -3 6 -5 1 -5 -13z"/>
<path d="M1092 3110 c0 -14 2 -19 5 -12 2 6 2 18 0 25 -3 6 -5 1 -5 -13z"/>
<path d="M877 3068 c22 -76 47 -121 87 -155 37 -33 97 -49 133 -36 l22 8 -24
59 c-13 33 -37 75 -53 95 -34 43 -104 81 -149 81 l-32 0 16 -52z"/>
<path d="M4034 3105 c-39 -17 -87 -72 -118 -133 -40 -81 -41 -89 -7 -97 94
-20 191 73 217 210 6 35 6 35 -27 34 -19 0 -48 -7 -65 -14z"/>
<path d="M3891 3064 c0 -11 3 -14 6 -6 3 7 2 16 -1 19 -3 4 -6 -2 -5 -13z"/>
<path d="M1101 3054 c0 -11 3 -14 6 -6 3 7 2 16 -1 19 -3 4 -6 -2 -5 -13z"/>
<path d="M1316 2851 c-48 -32 -71 -78 -71 -143 0 -51 -1 -55 -12 -35 -7 12
-12 18 -13 14 0 -18 125 -253 182 -339 l59 -90 -59 47 c-93 72 -184 90 -262
50 l-24 -13 64 -64 c36 -35 83 -72 104 -82 50 -23 126 -17 167 13 l30 22 77
-72 c125 -117 279 -234 417 -317 22 -13 31 -21 20 -17 -48 17 -144 28 -188 21
-50 -8 -129 -59 -135 -88 -2 -11 16 -23 60 -42 159 -66 252 -52 317 47 21 31
27 35 44 25 11 -6 88 -34 171 -63 l151 -53 -45 -12 c-191 -50 -356 -108 -353
-124 0 -5 13 -16 27 -25 23 -14 28 -14 63 6 45 25 356 123 391 123 35 0 350
-98 393 -122 34 -19 38 -19 68 -4 17 9 29 21 26 26 -10 15 -192 77 -355 120
l-45 12 151 53 c83 29 160 58 172 64 17 9 22 8 27 -8 10 -32 81 -89 126 -101
49 -13 127 1 218 41 57 24 62 36 29 67 -69 64 -171 77 -298 37 -14 -4 31 30
100 75 139 92 184 127 315 246 l90 81 44 -24 c85 -45 164 -23 258 74 29 30 53
58 53 63 0 18 -46 34 -105 34 -65 1 -120 -24 -191 -86 -31 -27 -28 -20 32 73
63 99 195 355 193 375 0 5 -12 -13 -26 -41 l-25 -50 6 37 c2 20 0 54 -6 75
-11 41 -76 113 -101 113 -36 0 -51 -164 -21 -223 9 -18 30 -46 47 -64 l30 -32
-38 -63 c-38 -62 -134 -198 -139 -198 -2 0 7 21 20 46 32 63 39 108 25 155
-12 39 -65 109 -83 109 -14 0 -56 -103 -63 -157 -7 -53 10 -114 45 -163 l20
-28 -80 -76 c-45 -41 -95 -85 -113 -97 l-32 -23 21 25 c78 88 86 191 20 273
-15 18 -17 19 -35 2 -32 -29 -82 -133 -87 -183 -5 -43 1 -74 29 -143 5 -11
-12 -28 -56 -57 -68 -46 -237 -138 -237 -129 0 3 13 12 30 21 84 43 140 123
140 199 0 47 -26 116 -44 116 -6 0 -36 -27 -68 -61 -74 -77 -97 -144 -80 -228
7 -30 11 -56 9 -57 -6 -6 -262 -95 -330 -114 l-78 -23 -107 32 c-59 18 -151
49 -205 69 l-97 36 7 35 c14 68 6 127 -23 181 -26 49 -105 130 -126 130 -15 0
-40 -71 -40 -116 0 -72 40 -132 132 -197 14 -9 -4 -3 -40 14 -89 43 -221 131
-216 144 29 66 38 121 27 171 -12 53 -82 174 -100 174 -6 0 -22 -21 -37 -47
-44 -75 -33 -162 30 -232 41 -46 -4 -15 -98 69 -93 81 -108 102 -86 115 26 16
53 92 53 145 -1 58 -39 170 -61 178 -15 5 -61 -44 -78 -85 -22 -51 -17 -104
14 -166 16 -31 23 -52 16 -46 -17 14 -126 175 -148 218 -18 33 -18 33 13 65
58 60 75 142 50 242 -13 49 -21 52 -63 25z"/>
<path d="M3816 2805 c-9 -26 -7 -32 5 -12 6 10 9 21 6 23 -2 3 -7 -2 -11 -11z"/>
<path d="M1180 2785 c0 -5 5 -17 10 -25 5 -8 10 -10 10 -5 0 6 -5 17 -10 25
-5 8 -10 11 -10 5z"/>
<path d="M1200 2735 c0 -5 5 -17 10 -25 5 -8 10 -10 10 -5 0 6 -5 17 -10 25
-5 8 -10 11 -10 5z"/>
<path d="M962 2723 c-9 -3 -4 -21 19 -62 51 -97 123 -151 200 -151 31 0 79 19
79 31 0 12 -69 102 -98 127 -60 52 -148 76 -200 55z"/>
<path d="M3900 2712 c-72 -35 -175 -161 -152 -184 6 -6 30 -13 55 -15 85 -10
169 51 226 164 18 36 18 42 5 47 -30 11 -99 5 -134 -12z"/>
<path d="M1424 2061 c-23 -10 -45 -25 -49 -32 -10 -16 45 -66 110 -98 91 -45
169 -41 231 13 38 34 39 35 19 50 -11 8 -49 29 -84 47 -82 41 -167 49 -227 20z"/>
<path d="M3379 2056 c-45 -18 -93 -46 -128 -73 -9 -7 45 -56 76 -69 73 -31
186 0 272 73 40 35 36 47 -23 74 -56 25 -129 24 -197 -5z"/>
<path d="M220 1120 c0 -103 1 -110 20 -110 16 0 20 7 20 35 0 30 3 35 23 35
17 0 28 -10 40 -35 11 -23 24 -35 37 -35 24 0 24 2 4 42 -15 29 -15 34 0 59
40 68 1 119 -90 119 l-54 0 0 -110z m117 54 c10 -26 -11 -49 -46 -52 -30 -3
-31 -2 -31 32 0 34 2 36 35 36 24 0 38 -5 42 -16z"/>
<path d="M1384 1212 c-29 -23 -44 -54 -44 -92 0 -67 43 -109 110 -110 51 0 99
25 81 43 -7 7 -22 6 -50 -3 -35 -11 -43 -11 -65 4 -29 18 -41 54 -32 91 4 14
18 32 32 41 22 15 30 15 65 4 50 -17 74 -1 38 24 -31 21 -108 21 -135 -2z"/>
<path d="M1820 1133 c0 -64 4 -103 12 -111 17 -17 58 -15 58 3 0 8 -7 15 -15
15 -11 0 -15 19 -17 92 -3 79 -6 93 -20 96 -16 3 -18 -7 -18 -95z"/>
<path d="M2320 1191 l0 -39 -40 5 c-67 9 -106 -47 -75 -107 18 -35 56 -48 97
-32 16 6 28 6 28 1 0 -5 7 -9 15 -9 12 0 15 19 15 110 0 103 -1 110 -20 110
-17 0 -20 -7 -20 -39z m-12 -73 c17 -17 15 -53 -3 -68 -38 -31 -96 27 -65 65
15 18 51 20 68 3z"/>
<path d="M2610 1120 c0 -103 1 -110 20 -110 18 0 20 7 20 66 l0 67 61 -67 c33
-36 65 -66 70 -66 5 0 9 50 9 110 0 103 -1 110 -20 110 -18 0 -20 -7 -20 -62
l0 -62 -63 62 c-34 34 -66 62 -70 62 -4 0 -7 -49 -7 -110z"/>
<path d="M3410 1120 l0 -110 65 0 c58 0 65 2 65 20 0 17 -7 20 -45 20 -33 0
-45 4 -45 15 0 11 11 15 40 15 33 0 40 3 40 20 0 17 -7 20 -40 20 -39 0 -40 1
-40 35 0 35 0 35 45 35 38 0 45 3 45 20 0 18 -7 20 -65 20 l-65 0 0 -110z"/>
<path d="M3880 1120 c0 -103 1 -110 20 -110 16 0 20 7 20 35 0 30 3 35 23 35
17 0 28 -10 40 -35 11 -23 24 -35 37 -35 24 0 24 2 4 42 -15 29 -15 34 0 59
40 68 1 119 -90 119 l-54 0 0 -110z m117 54 c10 -26 -11 -49 -46 -52 -30 -3
-31 -2 -31 32 0 34 2 36 35 36 24 0 38 -5 42 -16z"/>
<path d="M737 1213 c-14 -13 -6 -33 13 -33 13 0 20 7 20 20 0 19 -20 27 -33
13z"/>
<path d="M1570 1200 c-8 -16 -8 -20 3 -20 8 0 22 9 32 20 18 19 17 20 -3 20
-12 0 -26 -9 -32 -20z"/>
<path d="M1760 1201 c0 -15 6 -21 21 -21 25 0 22 33 -4 38 -12 2 -17 -3 -17
-17z"/>
<path d="M4507 1213 c-14 -13 -6 -33 13 -33 13 0 20 7 20 20 0 19 -20 27 -33
13z"/>
<path d="M920 1185 c0 -14 -4 -25 -10 -25 -5 0 -10 -7 -10 -15 0 -8 5 -15 10
-15 6 0 10 -22 10 -48 0 -26 5 -53 12 -60 17 -17 58 -15 58 3 0 8 -7 15 -15
15 -11 0 -15 12 -15 45 0 33 4 45 15 45 8 0 15 7 15 15 0 8 -7 15 -15 15 -9 0
-15 9 -15 25 0 18 -5 25 -20 25 -15 0 -20 -7 -20 -25z"/>
<path d="M2990 1187 c0 -13 -5 -28 -11 -34 -8 -8 -8 -13 0 -17 6 -4 11 -25 11
-47 0 -56 15 -79 50 -79 34 0 41 19 10 27 -16 4 -20 14 -20 49 0 32 4 44 15
44 8 0 15 7 15 15 0 8 -7 15 -15 15 -9 0 -15 9 -15 25 0 18 -5 25 -20 25 -14
0 -20 -7 -20 -23z"/>
<path d="M415 1140 c-27 -30 -25 -88 4 -111 28 -23 84 -25 101 -4 19 23 4 35
-29 22 -23 -8 -33 -8 -45 2 -28 23 -18 31 39 31 48 0 55 2 55 20 0 53 -88 81
-125 40z m80 -20 c4 -6 -7 -10 -24 -10 -17 0 -31 5 -31 10 0 6 11 10 24 10 14
0 28 -4 31 -10z"/>
<path d="M571 1134 c-28 -36 -26 -70 5 -101 21 -21 32 -24 60 -20 25 4 34 2
34 -8 0 -23 -37 -38 -61 -25 -11 7 -28 9 -37 5 -14 -5 -14 -7 -1 -21 27 -26
81 -28 112 -4 26 21 27 25 27 111 0 72 -3 89 -15 89 -8 0 -15 -5 -15 -12 0 -9
-3 -9 -12 0 -22 22 -75 14 -97 -14z m86 -12 c11 -7 16 -26 14 -49 0 -7 -10
-17 -21 -23 -27 -15 -60 4 -60 33 0 38 35 59 67 39z"/>
<path d="M730 1085 c0 -68 2 -75 20 -75 18 0 20 7 20 75 0 68 -2 75 -20 75
-18 0 -20 -7 -20 -75z"/>
<path d="M802 1148 c-21 -21 -13 -45 26 -77 l37 -30 -37 -1 c-27 0 -38 -4 -38
-15 0 -11 11 -15 38 -15 72 0 86 53 25 91 l-38 24 33 3 c44 5 44 32 -1 32 -18
0 -38 -5 -45 -12z"/>
<path d="M1002 1086 c2 -58 6 -71 21 -74 14 -3 17 4 17 41 0 58 8 77 30 77 10
0 20 6 23 14 5 12 -4 15 -44 14 l-50 -1 3 -71z"/>
<path d="M1120 1140 c-12 -12 -20 -33 -20 -53 0 -70 85 -103 135 -52 30 30 32
64 4 99 -26 33 -88 37 -119 6z m88 -22 c27 -27 7 -78 -29 -78 -23 0 -49 38
-41 59 11 31 48 41 70 19z"/>
<path d="M1554 1146 c-3 -7 -4 -40 -2 -72 2 -47 7 -59 21 -62 15 -3 17 6 17
72 0 62 -3 76 -15 76 -9 0 -18 -6 -21 -14z"/>
<path d="M1600 1156 c0 -2 17 -39 37 -81 l36 -77 25 48 c14 27 31 64 39 82 12
29 12 32 -5 32 -12 0 -25 -15 -38 -47 l-20 -48 -18 48 c-13 33 -24 47 -37 47
-11 0 -19 -2 -19 -4z"/>
<path d="M1760 1085 c0 -68 2 -75 20 -75 18 0 20 7 20 75 0 68 -2 75 -20 75
-18 0 -20 -7 -20 -75z"/>
<path d="M1990 1140 c-12 -12 -20 -33 -20 -55 0 -45 29 -75 73 -75 17 0 40 7
50 14 15 11 15 15 3 25 -10 8 -16 9 -21 1 -11 -17 -54 -11 -65 10 -10 19 -8
20 45 20 51 0 55 2 55 23 0 53 -80 77 -120 37z m80 -20 c0 -5 -14 -10 -31 -10
-17 0 -28 4 -24 10 3 6 17 10 31 10 13 0 24 -4 24 -10z"/>
<path d="M2395 1140 c-27 -30 -25 -88 4 -111 28 -23 84 -25 101 -4 19 23 4 35
-29 22 -23 -8 -33 -8 -45 2 -28 23 -18 31 39 31 48 0 55 2 55 20 0 53 -88 81
-125 40z m80 -20 c4 -6 -7 -10 -24 -10 -17 0 -31 5 -31 10 0 6 11 10 24 10 14
0 28 -4 31 -10z"/>
<path d="M2830 1140 c-12 -12 -20 -33 -20 -53 0 -70 85 -103 135 -52 30 30 32
64 4 99 -26 33 -88 37 -119 6z m88 -22 c27 -27 7 -78 -29 -78 -23 0 -49 38
-41 59 11 31 48 41 70 19z"/>
<path d="M3087 1154 c-13 -13 5 -24 38 -24 20 0 35 -6 39 -15 4 -12 -3 -15
-29 -15 -44 0 -73 -37 -56 -69 10 -17 20 -20 66 -19 l55 2 0 61 c0 34 -5 66
-12 73 -12 12 -90 17 -101 6z m70 -90 c5 -15 -11 -33 -30 -34 -15 0 -20 32 -6
41 20 13 29 11 36 -7z"/>
<path d="M3232 1148 c-21 -21 -13 -45 26 -77 l37 -30 -37 -1 c-27 0 -38 -4
-38 -15 0 -11 11 -15 38 -15 72 0 86 53 25 91 l-38 24 33 3 c44 5 44 32 -1 32
-18 0 -38 -5 -45 -12z"/>
<path d="M3560 1084 c0 -67 2 -74 20 -74 16 0 19 8 22 58 3 49 6 57 24 60 24
3 34 -19 34 -80 0 -27 4 -38 15 -38 11 0 15 12 15 48 0 55 10 75 36 70 16 -3
20 -14 22 -61 3 -49 6 -57 22 -57 17 0 20 7 20 53 0 87 -11 95 -130 95 l-100
-1 0 -73z"/>
<path d="M4071 1134 c-28 -35 -26 -69 4 -99 51 -51 135 -18 135 53 0 45 -30
72 -79 72 -31 0 -44 -6 -60 -26z m85 -12 c19 -13 23 -39 8 -61 -26 -36 -74
-21 -74 24 0 36 37 57 66 37z"/>
<path d="M4230 1141 c-16 -31 -12 -40 25 -62 44 -26 44 -37 3 -41 -44 -4 -38
-22 7 -26 70 -6 87 46 28 83 -40 25 -41 35 -3 35 20 0 30 5 30 15 0 24 -76 20
-90 -4z"/>
<path d="M4360 1140 c-46 -46 -9 -130 56 -130 40 0 74 24 57 41 -10 10 -15 9
-27 -1 -20 -15 -66 -5 -66 15 0 11 13 15 55 15 62 0 68 10 34 54 -26 33 -79
36 -109 6z m85 -20 c4 -6 -8 -10 -30 -10 -22 0 -34 4 -30 10 3 6 17 10 30 10
13 0 27 -4 30 -10z"/>
<path d="M4500 1085 c0 -68 2 -75 20 -75 18 0 20 7 20 75 0 68 -2 75 -20 75
-18 0 -20 -7 -20 -75z"/>
<path d="M4560 1083 c0 -66 2 -73 20 -73 16 0 19 8 22 58 3 50 6 57 26 60 12
2 22 9 22 17 0 9 -14 13 -45 13 l-45 -1 0 -74z"/>
<path d="M4670 1146 c0 -10 13 -16 37 -18 48 -4 57 -28 11 -28 -39 0 -58 -15
-58 -46 0 -32 21 -44 73 -42 l47 2 0 61 c0 34 -5 66 -12 73 -18 18 -98 16 -98
-2z m64 -72 c9 -3 16 -10 16 -15 0 -14 -35 -28 -50 -19 -11 7 -11 11 -1 24 15
18 14 18 35 10z"/>
</g>
</svg>
